<mxfile host="65bd71144e">
    <diagram id="A5e3RM57cPMwyPoYxp2X" name="Page-1">
        <mxGraphModel dx="1155" dy="649" grid="1" gridSize="10" guides="1" tooltips="1" connect="1" arrows="1" fold="1" page="1" pageScale="1" pageWidth="850" pageHeight="1100" background="#FFFFFF" math="0" shadow="0">
            <root>
                <mxCell id="0"/>
                <mxCell id="1" parent="0"/>
                <mxCell id="2" value="Flask" style="rounded=0;whiteSpace=wrap;html=1;fontStyle=1;verticalAlign=top;container=1;collapsible=0;recursiveResize=0;" vertex="1" parent="1">
                    <mxGeometry x="100" y="120" width="520" height="140" as="geometry"/>
                </mxCell>
                <mxCell id="8" value="API" style="rounded=0;whiteSpace=wrap;html=1;container=1;collapsible=0;verticalAlign=top;" vertex="1" parent="2">
                    <mxGeometry x="280" y="40" width="220" height="80" as="geometry"/>
                </mxCell>
                <mxCell id="9" value="/predict&lt;br style=&quot;border-color: var(--border-color);&quot;&gt;/boards" style="text;html=1;strokeColor=none;fillColor=none;align=center;verticalAlign=middle;whiteSpace=wrap;rounded=0;" vertex="1" parent="8">
                    <mxGeometry x="55.00000000000001" y="30" width="110.00000000000001" height="40" as="geometry"/>
                </mxCell>
                <mxCell id="7" value="Webサーバー" style="rounded=0;whiteSpace=wrap;html=1;verticalAlign=top;container=1;collapsible=0;" vertex="1" parent="2">
                    <mxGeometry x="20" y="40" width="220" height="80" as="geometry"/>
                </mxCell>
                <mxCell id="11" value="/" style="text;html=1;strokeColor=none;fillColor=none;align=center;verticalAlign=middle;whiteSpace=wrap;rounded=0;" vertex="1" parent="7">
                    <mxGeometry x="55" y="29.996666666666663" width="110" height="40" as="geometry"/>
                </mxCell>
                <mxCell id="18" style="edgeStyle=none;html=1;entryX=0.5;entryY=1;entryDx=0;entryDy=0;startArrow=block;startFill=1;endArrow=none;endFill=0;exitX=0.819;exitY=-0.005;exitDx=0;exitDy=0;exitPerimeter=0;" edge="1" parent="1" source="3" target="8">
                    <mxGeometry relative="1" as="geometry">
                        <Array as="points">
                            <mxPoint x="560" y="280"/>
                            <mxPoint x="490" y="280"/>
                        </Array>
                    </mxGeometry>
                </mxCell>
                <mxCell id="3" value="Android" style="rounded=0;whiteSpace=wrap;html=1;fontStyle=1;verticalAlign=middle;container=1;collapsible=0;recursiveResize=0;" vertex="1" parent="1">
                    <mxGeometry x="380" y="320" width="220" height="80" as="geometry"/>
                </mxCell>
                <mxCell id="16" value="CPU手の取得" style="edgeStyle=none;html=1;entryX=0.5;entryY=1;entryDx=0;entryDy=0;exitX=0.544;exitY=-0.012;exitDx=0;exitDy=0;exitPerimeter=0;endArrow=none;endFill=0;startArrow=block;startFill=1;" edge="1" parent="1" source="4" target="8">
                    <mxGeometry x="0.7569" y="-10" relative="1" as="geometry">
                        <Array as="points">
                            <mxPoint x="240" y="280"/>
                            <mxPoint x="490" y="280"/>
                        </Array>
                        <mxPoint x="-10" y="10" as="offset"/>
                    </mxGeometry>
                </mxCell>
                <mxCell id="4" value="ブラウザ" style="rounded=0;whiteSpace=wrap;html=1;fontStyle=1;verticalAlign=middle;container=1;collapsible=0;recursiveResize=0;" vertex="1" parent="1">
                    <mxGeometry x="120" y="320" width="220" height="80" as="geometry"/>
                </mxCell>
                <mxCell id="14" value="" style="edgeStyle=none;html=1;" edge="1" parent="1">
                    <mxGeometry y="-41" relative="1" as="geometry">
                        <mxPoint x="141" y="240" as="sourcePoint"/>
                        <mxPoint x="141" y="320" as="targetPoint"/>
                        <mxPoint as="offset"/>
                    </mxGeometry>
                </mxCell>
            </root>
        </mxGraphModel>
    </diagram>
</mxfile>